<svg width="35" height="35" viewBox="0 0 35 35" fill="none" xmlns="http://www.w3.org/2000/svg">
<circle cx="17.5" cy="17.5" r="17.5" fill="#E3E3E3"/>
<path d="M20.4025 14.3329C20.084 14.3329 19.8258 14.5741 19.8258 14.8716V25.0519C19.8258 25.3492 20.084 25.5905 20.4025 25.5905C20.721 25.5905 20.9792 25.3492 20.9792 25.0519V14.8716C20.9792 14.5741 20.721 14.3329 20.4025 14.3329Z" fill="#1F1F1F"/>
<path d="M13.5975 14.3329C13.279 14.3329 13.0208 14.5741 13.0208 14.8716V25.0519C13.0208 25.3492 13.279 25.5905 13.5975 25.5905C13.916 25.5905 14.1742 25.3492 14.1742 25.0519V14.8716C14.1742 14.5741 13.916 14.3329 13.5975 14.3329Z" fill="#1F1F1F"/>
<path d="M8.63791 12.8473V26.1183C8.63791 26.9027 8.94586 27.6393 9.48381 28.1678C10.0193 28.6979 10.7645 28.9987 11.5444 29H22.4556C23.2358 28.9987 23.9809 28.6979 24.5162 28.1678C25.0541 27.6393 25.3621 26.9027 25.3621 26.1183V12.8473C26.4315 12.5822 27.1244 11.6173 26.9813 10.5924C26.8381 9.56772 25.9034 8.80121 24.7969 8.801H21.8442V8.1277C21.8476 7.5615 21.6079 7.01781 21.1788 6.61782C20.7497 6.21805 20.1666 5.99544 19.5604 6.00007H14.4396C13.8334 5.99544 13.2504 6.21805 12.8212 6.61782C12.3921 7.01781 12.1524 7.5615 12.1558 8.1277V8.801H9.20312C8.09658 8.80121 7.16193 9.56772 7.01866 10.5924C6.87561 11.6173 7.56854 12.5822 8.63791 12.8473ZM22.4556 27.9227H11.5444C10.5584 27.9227 9.7913 27.1316 9.7913 26.1183V12.8947H24.2087V26.1183C24.2087 27.1316 23.4416 27.9227 22.4556 27.9227ZM13.3091 8.1277C13.3053 7.84723 13.4234 7.57728 13.6365 7.37928C13.8493 7.18129 14.139 7.07251 14.4396 7.07735H19.5604C19.861 7.07251 20.1507 7.18129 20.3635 7.37928C20.5766 7.57707 20.6947 7.84723 20.6909 8.1277V8.801H13.3091V8.1277ZM9.20312 9.87828H24.7969C25.3702 9.87828 25.8349 10.3123 25.8349 10.8478C25.8349 11.3833 25.3702 11.8174 24.7969 11.8174H9.20312C8.6298 11.8174 8.16506 11.3833 8.16506 10.8478C8.16506 10.3123 8.6298 9.87828 9.20312 9.87828Z" fill="#1F1F1F"/>
<path d="M17 14.3329C16.6814 14.3329 16.4233 14.5741 16.4233 14.8716V25.0519C16.4233 25.3492 16.6814 25.5905 17 25.5905C17.3185 25.5905 17.5767 25.3492 17.5767 25.0519V14.8716C17.5767 14.5741 17.3185 14.3329 17 14.3329Z" fill="#1F1F1F"/>
</svg>
